<svg width="40" height="40" viewBox="0 0 40 40" fill="none" xmlns="http://www.w3.org/2000/svg">
<g clip-path="url(#clip0_8_5080)">
<path d="M31.4103 10.97C31.2399 10.8651 31.0994 10.7182 31.0022 10.5434C30.905 10.3686 30.8544 10.1717 30.8553 9.97167C30.3019 4.43333 25.6503 0 20.0003 0C14.3486 0 9.58359 4.32167 9.14193 9.97167C9.12934 10.1687 9.07318 10.3604 8.97749 10.533C8.8818 10.7057 8.74897 10.8549 8.58859 10.97C5.81693 12.9633 3.93359 16.1783 3.93359 19.8333C3.93359 24.8183 7.36859 29.14 12.0219 30.36C12.7969 30.5817 13.6853 30.6933 13.9053 30.47C14.4603 30.1367 15.2353 27.3667 14.9036 26.8133C14.6803 26.48 14.0153 26.1483 13.1303 25.9267C10.3603 25.1517 8.36359 22.7133 8.36359 19.7217C8.36359 18.06 9.03026 16.62 10.0269 15.4017C10.4756 14.8402 11.0438 14.3858 11.6903 14.0717C12.9069 13.405 13.5736 12.1883 13.5736 10.8583C13.5736 10.1917 13.6847 9.52722 13.9069 8.865C14.7919 6.315 17.1186 4.43167 20.0003 4.43167C22.8803 4.43167 25.2086 6.315 26.0936 8.865C26.3147 9.53055 26.4258 10.195 26.4269 10.8583C26.4269 12.1883 27.0886 13.4067 28.3103 14.0717C28.9736 14.405 29.4169 14.8467 29.9719 15.4017C31.0344 16.5906 31.6254 18.1271 31.6336 19.7217C31.6318 21.4253 30.9544 23.0587 29.7499 24.2635C28.5454 25.4683 26.9122 26.1461 25.2086 26.1483C21.1086 26.1483 17.8953 29.4733 17.8953 33.5733V37.7833C17.8953 38.5583 18.0053 39.445 18.2286 39.6667C18.6719 40.1117 21.5536 40.1117 21.9953 39.6667C22.2169 39.445 22.3286 38.5583 22.3286 37.7833V33.4617C22.3286 31.9117 23.6569 30.5817 25.2086 30.5817C31.1919 30.5817 36.0669 25.7067 36.0669 19.7233C36.0636 16.1767 34.1786 12.9633 31.4103 10.97Z" fill="#2C2C39"/>
</g>
<defs>
<clipPath id="clip0_8_5080">
<rect width="40" height="40" fill="white"/>
</clipPath>
</defs>
</svg>
